<svg xmlns="http://www.w3.org/2000/svg" xmlns:xlink="http://www.w3.org/1999/xlink" viewBox="18 8.98 64 71.03">
<g id="surface44861409">
<path style="stroke: none; fill-rule: nonzero; fill: rgb(97, 149, 255); fill-opacity: 1; --darkreader-inline-stroke: none; --darkreader-inline-fill: #5dacff;" d="M 44.019531 9 C 43.890625 8.996094 43.757812 9.019531 43.628906 9.070312 C 43.113281 9.277344 42.863281 9.859375 43.070312 10.371094 L 47.933594 22.527344 L 38.53125 16.652344 C 38.0625 16.359375 37.445312 16.5 37.152344 16.96875 C 36.859375 17.4375 37 18.054688 37.46875 18.347656 L 46.515625 24 L 23 24 C 20.242188 24 18 26.242188 18 29 L 18 37 C 18 39.757812 20.242188 42 23 42 L 77 42 C 79.757812 42 82 39.757812 82 37 L 82 29 C 82 26.242188 79.757812 24 77 24 L 53.484375 24 L 62.53125 18.347656 C 63 18.054688 63.140625 17.4375 62.847656 16.96875 C 62.554688 16.5 61.9375 16.359375 61.46875 16.652344 L 52.066406 22.527344 L 56.929688 10.371094 C 57.132812 9.859375 56.882812 9.277344 56.371094 9.070312 C 55.859375 8.863281 55.277344 9.113281 55.070312 9.628906 L 50 22.304688 L 44.929688 9.628906 C 44.773438 9.242188 44.410156 9.007812 44.019531 9 Z M 22 44 L 22 71 C 22 75.960938 26.039062 80 31 80 L 49 80 L 49 44 Z M 51 44 L 51 80 L 69 80 C 73.960938 80 78 75.960938 78 71 L 78 44 Z M 51 44 " data-darkreader-inline-stroke="" data-darkreader-inline-fill=""/>
</g>
</svg>