<svg xmlns="http://www.w3.org/2000/svg" xmlns:xlink="http://www.w3.org/1999/xlink" viewBox="90 44.98 320 355.02">
<g id="surface44871094">
<path style="stroke: none; fill-rule: nonzero; fill: rgb(255, 255, 255); fill-opacity: 1; --darkreader-inline-stroke: none; --darkreader-inline-fill: #e8e6e3;" d="M 220.097656 45 C 219.449219 44.988281 218.78125 45.089844 218.144531 45.351562 C 215.574219 46.382812 214.320312 49.296875 215.351562 51.855469 L 239.667969 112.636719 L 192.65625 83.261719 C 190.316406 81.792969 187.222656 82.503906 185.761719 84.84375 C 184.300781 87.183594 185.003906 90.277344 187.34375 91.738281 L 232.578125 120 L 115 120 C 101.210938 120 90 131.21875 90 145 L 90 185 C 90 198.78125 101.210938 210 115 210 L 385 210 C 398.789062 210 410 198.78125 410 185 L 410 145 C 410 131.21875 398.789062 120 385 120 L 267.421875 120 L 312.65625 91.738281 C 314.996094 90.277344 315.699219 87.183594 314.238281 84.84375 C 312.777344 82.503906 309.695312 81.792969 307.34375 83.261719 L 260.332031 112.636719 L 284.648438 51.855469 C 285.667969 49.296875 284.414062 46.382812 281.855469 45.351562 C 279.304688 44.3125 276.382812 45.574219 275.351562 48.144531 L 250 111.523438 L 224.648438 48.144531 C 223.875 46.210938 222.042969 45.035156 220.097656 45 Z M 110 220 L 110 355 C 110 379.808594 130.191406 400 155 400 L 245 400 L 245 220 Z M 255 220 L 255 400 L 345 400 C 369.808594 400 390 379.808594 390 355 L 390 220 Z M 255 220 " data-darkreader-inline-stroke="" data-darkreader-inline-fill=""/>
</g>
</svg>